<svg id="Livello_1" data-name="Livello 1" xmlns="http://www.w3.org/2000/svg" viewBox="0 0 380 380"><defs><style>.cls-1{fill:#fff;}.cls-2{fill:#d6282e;}.cls-3{fill:#259c42;}</style></defs><title>favicon</title><rect width="380" height="380"/><path class="cls-1" d="M257.32668,2485.0573H213.21614v111.88033H232.8736v-35.95735h22.2149c24.61575,0,44.74823-13.105,44.74823-38.19574v-.32535C299.83652,2499.91915,283.53664,2485.0573,257.32668,2485.0573ZM279.86,2523.253c0,11.67345-9.26588,19.98932-24.13383,19.98932H232.87381v-40.278h22.85237c14.70568,0,24.13383,6.87133,24.13383,19.97631Z" transform="translate(-192.13677 -2437.69166)"/><path class="cls-1" d="M432.07707,2540.67863A56.789,56.789,0,0,0,376.059,2483.128q-1.15843-.01466-2.31667.01626a57.32317,57.32317,0,0,0-58.647,55.96782q-.02228.94433-.013,1.89189v.31234a56.7868,56.7868,0,0,0,56.01052,57.55063q1.16211.01464,2.3242-.01627a57.31948,57.31948,0,0,0,58.64685-55.96131q.02226-.94433.01322-1.88539Zm-20.6205.63768a37.66265,37.66265,0,0,1-35.97321,39.27914c-.57993.0244-1.16027.03742-1.74081.03579a38.18786,38.18786,0,0,1-38.06682-38.308c.00143-.43922.01037-.88007.02705-1.31929v-.32534a37.79447,37.79447,0,0,1,36.08139-39.43369q.81591-.0366,1.63283-.03741a38.32437,38.32437,0,0,1,38.067,38.57965c-.00264.40505-.01179.81174-.02745,1.21679Z" transform="translate(-192.13677 -2437.69166)"/><path class="cls-1" d="M547.38,2520.70232v-.32535a33.80515,33.80515,0,0,0-9.26588-24.12773,45.052,45.052,0,0,0-32.28744-11.19194H455.964v111.88033h19.65747V2557.935h24.60925l27.492,39.0026h23.33429l-30.20521-42.36018A33.57274,33.57274,0,0,0,547.38,2520.70232Zm-71.75853,19.82014V2502.9644h28.61142c14.543,0,23.17121,6.546,23.17121,18.53177v.32534c0,11.34811-8.947,18.70095-23.015,18.70095Z" transform="translate(-192.13677 -2437.69166)"/><polygon class="cls-1" points="72.634 308.797 105.766 259.329 105.766 334.568 124.201 334.568 124.201 229.646 104.567 229.646 72.634 279.251 40.714 229.646 21.079 229.646 21.079 334.568 39.214 334.568 39.214 259.617 72.034 308.797 72.634 308.797"/><path class="cls-1" d="M364.07413,2746.92226H413.688l10.643,25.33789h19.49163L397.6504,2666.588H380.56319l-46.16588,105.67219h18.88747Zm24.73364-58.304,18.13685,41.97351h-36.121Z" transform="translate(-192.13677 -2437.69166)"/><path class="cls-1" d="M522.72878,2732.53239a31.4868,31.4868,0,0,0,24.88029-31.77v-.30513a31.70446,31.70446,0,0,0-8.69016-22.62835,42.252,42.252,0,0,0-30.281-10.49643h-46.764v104.92768h18.43588v-36.57884h23.07994l25.78357,36.57884h21.88412Zm-42.41843-13.18157v-35.22406h26.83341c13.63925,0,21.73126,6.13919,21.73126,17.38013v.30513c0,10.64289-8.39094,17.5388-21.58414,17.5388Z" transform="translate(-192.13677 -2437.69166)"/><rect class="cls-1" x="133.69301" y="182.86741" width="112.61365" height="23.37643"/><rect class="cls-2" x="246.30666" y="182.86741" width="112.61365" height="23.37643"/><rect class="cls-3" x="21.07936" y="182.86741" width="112.61365" height="23.37643"/></svg>